<?xml version="1.0" encoding="utf-8"?>
<!-- Generator: Adobe Illustrator 16.0.2, SVG Export Plug-In . SVG Version: 6.00 Build 0)  -->
<!DOCTYPE svg PUBLIC "-//W3C//DTD SVG 1.1//EN" "http://www.w3.org/Graphics/SVG/1.1/DTD/svg11.dtd">
<svg version="1.1" id="Layer_1" xmlns="http://www.w3.org/2000/svg" xmlns:xlink="http://www.w3.org/1999/xlink" x="0px" y="0px"
	 width="41.667px" height="33.5px" viewBox="14.81 11.354 41.667 33.5" enable-background="new 14.81 11.354 41.667 33.5"
	 xml:space="preserve">
<path fill="#FFFFFF" d="M50.854,15.938c-0.782-0.731-1.47-1.283-2.033-1.942c-0.268-0.314-0.298-0.833-0.437-1.258
	c0.413,0.034,0.929-0.079,1.222,0.126c1.675,1.17,3.324,2.383,4.923,3.654c0.681,0.541,0.717,1.354,0.216,2.052
	c-1.165,1.624-2.327,3.258-3.626,4.771c-0.316,0.369-1.159,0.285-1.759,0.41c0.059-0.554-0.066-1.237,0.212-1.639
	c0.804-1.16,1.771-2.207,2.714-3.349c-4.823-0.956-9.476-0.966-14.111,0.944c-6.011,2.477-11.284,5.878-15.181,11.153
	c-2.478,3.356-4.281,7.076-5.452,11.093c-0.13,0.447-0.342,0.87-0.517,1.304c-0.159-0.021-0.318-0.042-0.477-0.063
	C16.582,42.46,16.5,41.701,16.667,41c1.346-5.673,4.095-10.577,8.083-14.833c4.813-5.135,10.769-8.243,17.472-10.033
	c1.357-0.362,2.809-0.461,4.222-0.496C47.803,15.606,49.168,15.813,50.854,15.938z"/>
</svg>
